<svg width="10" height="18" viewBox="0 0 10 18" fill="none" xmlns="http://www.w3.org/2000/svg">
<path fill-rule="evenodd" clip-rule="evenodd" d="M0.441824 1.5617C0.289674 1.4154 0.201501 1.2149 0.196512 1.00389C0.192709 0.842749 0.237665 0.684219 0.325491 0.549067C0.413316 0.413912 0.539916 0.308434 0.688705 0.246452C0.837495 0.184471 1.00154 0.168875 1.15934 0.201708C1.31714 0.234539 1.46135 0.314268 1.57307 0.43045L9.57307 8.43045C9.72305 8.58048 9.80729 8.78394 9.80729 8.99607C9.80729 9.20821 9.72305 9.41166 9.57307 9.5617L1.57307 17.5617C1.46208 17.6757 1.31959 17.7541 1.16382 17.7867C1.00806 17.8194 0.846102 17.8048 0.698653 17.745C0.551203 17.6851 0.424963 17.5826 0.336073 17.4506C0.247182 17.3186 0.199679 17.163 0.199637 17.0039C0.199643 16.897 0.221078 16.7911 0.262675 16.6926C0.304273 16.5942 0.365189 16.505 0.441824 16.4304L7.8762 8.99607L0.441824 1.5617Z" fill="#616161"/>
</svg>
