<svg width="10" height="18" viewBox="0 0 10 18" fill="none" xmlns="http://www.w3.org/2000/svg">
<path fill-rule="evenodd" clip-rule="evenodd" d="M0.434012 1.56544C0.281862 1.41914 0.193688 1.21864 0.188699 1.00763C0.184897 0.846487 0.229853 0.687958 0.317678 0.552805C0.405504 0.41765 0.532104 0.312172 0.680893 0.250191C0.829682 0.18821 0.993724 0.172613 1.15153 0.205446C1.30933 0.238277 1.45354 0.318007 1.56526 0.434189L9.56526 8.43419C9.71523 8.58422 9.79948 8.78768 9.79948 8.99981C9.79948 9.21195 9.71523 9.4154 9.56526 9.56544L1.56526 17.5654C1.45426 17.6795 1.31178 17.7578 1.15601 17.7905C1.00025 17.8231 0.83829 17.8086 0.69084 17.7487C0.543391 17.6888 0.417151 17.5863 0.32826 17.4543C0.239369 17.3223 0.191866 17.1668 0.191824 17.0076C0.191831 16.9007 0.213265 16.7949 0.254863 16.6964C0.29646 16.5979 0.357376 16.5087 0.434012 16.4342L7.86839 8.99981L0.434012 1.56544Z" fill="white"/>
</svg>
