<svg width="18" height="10" viewBox="0 0 18 10" fill="none" xmlns="http://www.w3.org/2000/svg">
<path fill-rule="evenodd" clip-rule="evenodd" d="M16.4344 0.434378C16.5807 0.282228 16.7812 0.194055 16.9923 0.189066C17.1534 0.185263 17.3119 0.230219 17.4471 0.318044C17.5822 0.40587 17.6877 0.53247 17.7497 0.681259C17.8117 0.830049 17.8273 0.99409 17.7944 1.15189C17.7616 1.3097 17.6819 1.45391 17.5657 1.56563L9.56569 9.56563C9.41566 9.7156 9.2122 9.79985 9.00006 9.79985C8.78793 9.79985 8.58447 9.7156 8.43444 9.56563L0.43444 1.56563C0.320392 1.45463 0.242037 1.31214 0.209394 1.15638C0.176751 1.00062 0.191303 0.838656 0.251189 0.691207C0.311074 0.543757 0.413573 0.417517 0.54558 0.328626C0.677588 0.239735 0.833106 0.192233 0.992253 0.192191C1.09917 0.192197 1.205 0.213632 1.30349 0.255229C1.40198 0.296826 1.49114 0.357742 1.56569 0.434378L9.00006 7.86875L16.4344 0.434378Z" fill="#616161"/>
</svg>
